<mxfile host="app.diagrams.net" modified="2023-12-06T18:26:59.281Z" agent="Mozilla/5.0 (Windows NT 10.0; Win64; x64) AppleWebKit/537.36 (KHTML, like Gecko) Chrome/119.0.0.0 Safari/537.36" etag="8a1xDerB_oVD_DmkGfTw" version="22.1.7" type="github">
  <diagram name="Page-1" id="0783ab3e-0a74-02c8-0abd-f7b4e66b4bec">
    <mxGraphModel dx="1434" dy="828" grid="1" gridSize="10" guides="1" tooltips="1" connect="1" arrows="1" fold="1" page="1" pageScale="1" pageWidth="850" pageHeight="1100" background="none" math="0" shadow="0">
      <root>
        <mxCell id="0" />
        <mxCell id="1" parent="0" />
        <mxCell id="1c1d494c118603dd-1" value="สร้างบทความ" style="swimlane;html=1;childLayout=stackLayout;startSize=20;rounded=0;shadow=0;comic=0;labelBackgroundColor=none;strokeWidth=1;fontFamily=Verdana;fontSize=12;align=center;" parent="1" vertex="1">
          <mxGeometry x="160" y="20" width="500" height="990" as="geometry" />
        </mxCell>
        <mxCell id="1c1d494c118603dd-2" value="ผู้ใช้งาน" style="swimlane;html=1;startSize=20;" parent="1c1d494c118603dd-1" vertex="1">
          <mxGeometry y="20" width="250" height="970" as="geometry" />
        </mxCell>
        <mxCell id="60571a20871a0731-4" value="" style="ellipse;whiteSpace=wrap;html=1;rounded=0;shadow=0;comic=0;labelBackgroundColor=none;strokeWidth=1;fillColor=#000000;fontFamily=Verdana;fontSize=12;align=center;" parent="1c1d494c118603dd-2" vertex="1">
          <mxGeometry x="90" y="30" width="40" height="40" as="geometry" />
        </mxCell>
        <mxCell id="1c1d494c118603dd-27" style="edgeStyle=orthogonalEdgeStyle;rounded=0;html=1;labelBackgroundColor=none;startArrow=none;startFill=0;startSize=5;endArrow=classicThin;endFill=1;endSize=5;jettySize=auto;orthogonalLoop=1;strokeWidth=1;fontFamily=Verdana;fontSize=12" parent="1c1d494c118603dd-2" source="60571a20871a0731-4" edge="1">
          <mxGeometry relative="1" as="geometry">
            <mxPoint x="110" y="100" as="targetPoint" />
          </mxGeometry>
        </mxCell>
        <mxCell id="1c1d494c118603dd-28" style="edgeStyle=orthogonalEdgeStyle;rounded=0;html=1;labelBackgroundColor=none;startArrow=none;startFill=0;startSize=5;endArrow=classicThin;endFill=1;endSize=5;jettySize=auto;orthogonalLoop=1;strokeWidth=1;fontFamily=Verdana;fontSize=12" parent="1c1d494c118603dd-2" edge="1">
          <mxGeometry relative="1" as="geometry">
            <Array as="points">
              <mxPoint x="109.5" y="160" />
            </Array>
            <mxPoint x="109.5" y="130" as="sourcePoint" />
            <mxPoint x="109.5" y="180" as="targetPoint" />
          </mxGeometry>
        </mxCell>
        <mxCell id="yz_sM1VcF6phBbkjl2Ay-5" value="เข้าสู่ระบบ" style="html=1;align=center;verticalAlign=top;rounded=1;absoluteArcSize=1;arcSize=10;dashed=0;whiteSpace=wrap;" vertex="1" parent="1c1d494c118603dd-2">
          <mxGeometry x="50" y="100" width="120" height="30" as="geometry" />
        </mxCell>
        <mxCell id="yz_sM1VcF6phBbkjl2Ay-11" value="กดปุ่มสร้างบทความ" style="html=1;align=center;verticalAlign=top;rounded=1;absoluteArcSize=1;arcSize=10;dashed=0;whiteSpace=wrap;" vertex="1" parent="1c1d494c118603dd-2">
          <mxGeometry x="50" y="180" width="120" height="30" as="geometry" />
        </mxCell>
        <mxCell id="yz_sM1VcF6phBbkjl2Ay-17" style="edgeStyle=orthogonalEdgeStyle;rounded=0;orthogonalLoop=1;jettySize=auto;html=1;exitX=0.5;exitY=1;exitDx=0;exitDy=0;entryX=0.5;entryY=0;entryDx=0;entryDy=0;" edge="1" parent="1c1d494c118603dd-2" source="yz_sM1VcF6phBbkjl2Ay-12" target="yz_sM1VcF6phBbkjl2Ay-15">
          <mxGeometry relative="1" as="geometry" />
        </mxCell>
        <mxCell id="yz_sM1VcF6phBbkjl2Ay-12" value="กรอกข้อมูลสำหรับบทความ" style="html=1;align=center;verticalAlign=top;rounded=1;absoluteArcSize=1;arcSize=10;dashed=0;whiteSpace=wrap;" vertex="1" parent="1c1d494c118603dd-2">
          <mxGeometry x="50" y="320" width="120" height="40" as="geometry" />
        </mxCell>
        <mxCell id="yz_sM1VcF6phBbkjl2Ay-15" value="กดปุ่มบันทึก" style="html=1;align=center;verticalAlign=top;rounded=1;absoluteArcSize=1;arcSize=10;dashed=0;whiteSpace=wrap;" vertex="1" parent="1c1d494c118603dd-2">
          <mxGeometry x="50" y="400" width="120" height="40" as="geometry" />
        </mxCell>
        <mxCell id="1c1d494c118603dd-3" value="ระบบ" style="swimlane;html=1;startSize=20;" parent="1c1d494c118603dd-1" vertex="1">
          <mxGeometry x="250" y="20" width="250" height="970" as="geometry" />
        </mxCell>
        <mxCell id="yz_sM1VcF6phBbkjl2Ay-9" value="ระบบแสดงฟอร์มสร้างบทความ" style="html=1;align=center;verticalAlign=top;rounded=1;absoluteArcSize=1;arcSize=10;dashed=0;whiteSpace=wrap;" vertex="1" parent="1c1d494c118603dd-3">
          <mxGeometry x="50" y="260" width="120" height="40" as="geometry" />
        </mxCell>
        <mxCell id="yz_sM1VcF6phBbkjl2Ay-23" style="edgeStyle=orthogonalEdgeStyle;rounded=0;orthogonalLoop=1;jettySize=auto;html=1;" edge="1" parent="1c1d494c118603dd-3" source="yz_sM1VcF6phBbkjl2Ay-10" target="yz_sM1VcF6phBbkjl2Ay-21">
          <mxGeometry relative="1" as="geometry" />
        </mxCell>
        <mxCell id="yz_sM1VcF6phBbkjl2Ay-10" value="บทความถูกบันทึกและแสดงในรายการ" style="html=1;align=center;verticalAlign=top;rounded=1;absoluteArcSize=1;arcSize=10;dashed=0;whiteSpace=wrap;" vertex="1" parent="1c1d494c118603dd-3">
          <mxGeometry x="50" y="560" width="120" height="40" as="geometry" />
        </mxCell>
        <mxCell id="yz_sM1VcF6phBbkjl2Ay-22" style="edgeStyle=orthogonalEdgeStyle;rounded=0;orthogonalLoop=1;jettySize=auto;html=1;entryX=0.5;entryY=0;entryDx=0;entryDy=0;" edge="1" parent="1c1d494c118603dd-3" source="yz_sM1VcF6phBbkjl2Ay-19" target="yz_sM1VcF6phBbkjl2Ay-10">
          <mxGeometry relative="1" as="geometry" />
        </mxCell>
        <mxCell id="yz_sM1VcF6phBbkjl2Ay-19" value="บันทึกลงฐานข้อมูล" style="html=1;align=center;verticalAlign=top;rounded=1;absoluteArcSize=1;arcSize=10;dashed=0;whiteSpace=wrap;" vertex="1" parent="1c1d494c118603dd-3">
          <mxGeometry x="50" y="460" width="120" height="30" as="geometry" />
        </mxCell>
        <mxCell id="yz_sM1VcF6phBbkjl2Ay-21" value="" style="ellipse;html=1;shape=endState;fillColor=strokeColor;" vertex="1" parent="1c1d494c118603dd-3">
          <mxGeometry x="85" y="640" width="50" height="50" as="geometry" />
        </mxCell>
        <mxCell id="yz_sM1VcF6phBbkjl2Ay-13" style="edgeStyle=orthogonalEdgeStyle;rounded=0;orthogonalLoop=1;jettySize=auto;html=1;entryX=0.5;entryY=0;entryDx=0;entryDy=0;" edge="1" parent="1c1d494c118603dd-1" source="yz_sM1VcF6phBbkjl2Ay-11" target="yz_sM1VcF6phBbkjl2Ay-9">
          <mxGeometry relative="1" as="geometry" />
        </mxCell>
        <mxCell id="yz_sM1VcF6phBbkjl2Ay-14" style="edgeStyle=orthogonalEdgeStyle;rounded=0;orthogonalLoop=1;jettySize=auto;html=1;entryX=0.467;entryY=-0.15;entryDx=0;entryDy=0;entryPerimeter=0;" edge="1" parent="1c1d494c118603dd-1" source="yz_sM1VcF6phBbkjl2Ay-9" target="yz_sM1VcF6phBbkjl2Ay-12">
          <mxGeometry relative="1" as="geometry">
            <Array as="points">
              <mxPoint x="106" y="300" />
            </Array>
          </mxGeometry>
        </mxCell>
        <mxCell id="yz_sM1VcF6phBbkjl2Ay-18" style="edgeStyle=orthogonalEdgeStyle;rounded=0;orthogonalLoop=1;jettySize=auto;html=1;entryX=0.5;entryY=0;entryDx=0;entryDy=0;" edge="1" parent="1c1d494c118603dd-1" source="yz_sM1VcF6phBbkjl2Ay-15" target="yz_sM1VcF6phBbkjl2Ay-19">
          <mxGeometry relative="1" as="geometry" />
        </mxCell>
      </root>
    </mxGraphModel>
  </diagram>
</mxfile>
